<svg width="1518" height="757" viewBox="0 0 1518 757" fill="none" xmlns="http://www.w3.org/2000/svg">
<g id="cloud">
<path id="Vector" opacity="0.5" d="M1417.17 305.247C1418.01 297.68 1418.45 289.991 1418.45 282.224C1418.45 160.592 1313.3 61.9837 1183.6 61.9837C1142.3 61.9837 1103.37 72.0423 1069.68 89.645C977.871 33.7636 858.012 0 726.888 0C513.528 0 330.001 89.4885 248.576 217.826C244.062 217.58 239.505 217.446 234.906 217.446C105.135 217.446 0 316.043 0 437.675C0 482.38 14.2401 523.989 38.6478 558.725C38.6478 668.152 150.362 756.892 288.164 756.892H461.893L462.662 755.852C472.873 742.843 497.323 739.591 514.354 746.978C518.854 748.923 523.041 751.449 528.068 752.343C548.189 755.696 561.703 730.292 582.066 732.762C592.291 734.003 600.265 742.295 610.546 741.446C617.367 740.876 622.537 736.394 628.945 734.494C639.212 731.432 649.621 735.679 656.813 742.575C660.985 733.153 660.957 721.988 667.706 713.349C677.917 700.34 702.367 697.087 719.398 704.475C723.898 706.42 728.085 708.945 733.111 709.84C753.233 713.192 766.747 687.789 787.11 690.259C797.334 691.499 805.309 699.792 815.59 698.943C822.411 698.373 827.581 693.891 833.989 691.991C849.966 687.219 866.328 700.172 870.258 713.226C871.781 718.977 872.587 724.832 872.665 730.706C886.449 725.464 898.098 710.722 913.833 712.634C924.058 713.874 932.032 722.167 942.313 721.318C949.135 720.747 954.304 716.266 960.712 714.366C976.689 709.594 993.051 722.547 996.981 735.601C999.075 742.53 999.217 749.728 999.573 756.836H1287.44C1395.66 756.836 1483.35 687.185 1483.35 601.262C1505.31 567.733 1518 528.303 1518 486.079C1518 411.198 1478.13 345.034 1417.17 305.247Z" fill="#97D4C5"/>
</g>
</svg>
