<svg width="1644" height="577" viewBox="0 0 1644 577" fill="none" xmlns="http://www.w3.org/2000/svg">
<g id="Frame" clip-path="url(#clip0)">
<path id="Vector" d="M0 576.733L56.6822 576.404L113.364 576L170.047 575.503L226.729 574.892L283.411 574.14L340.093 573.215L396.775 572.078L453.458 570.679L510.14 568.958L566.822 566.841L623.504 564.237L680.186 561.035L736.869 557.096L793.551 552.251L850.233 546.292L906.915 538.961L963.597 529.946L1020.28 518.856L1076.96 505.216L1133.64 488.438L1190.33 467.802L1247.01 442.419L1303.69 411.199L1360.37 372.798L1417.05 325.564L1473.74 267.467L1530.42 196.007L1587.1 108.111L1643.78 0V577H1587.1H1530.42H1473.74H1417.05H1360.37H1303.69H1247.01H1190.33H1133.64H1076.96H1020.28H963.597H906.915H850.233H793.551H736.869H680.186H623.504H566.822H510.14H453.458H396.775H340.093H283.411H226.729H170.047H113.364H56.6822H0V576.733Z" fill="url(#paint0_linear)"/>
<path id="Vector_2" d="M0 576.939L56.6897 576.871L113.379 576.794L170.069 576.708L226.759 576.612L283.448 576.505L340.138 576.384L396.828 576.249L453.517 576.098L510.207 575.929L566.897 575.74L623.586 575.527L680.276 575.29L736.966 575.023L793.655 574.725L850.345 574.391L907.034 574.017L963.724 573.598L1020.41 573.129L1077.1 572.603L1133.79 572.015L1190.48 571.355L1247.17 570.617L1303.86 569.79L1360.55 568.864L1417.24 567.826L1473.93 566.665L1530.62 565.363L1587.31 563.906L1644 562.274V577H1587.31H1530.62H1473.93H1417.24H1360.55H1303.86H1247.17H1190.48H1133.79H1077.1H1020.41H963.724H907.034H850.345H793.655H736.966H680.276H623.586H566.897H510.207H453.517H396.828H340.138H283.448H226.759H170.069H113.379H56.6897H0V576.939Z" fill="#282C47"/>
<path id="Vector_3" d="M0 576.939L56.6897 576.871L113.379 576.794L170.069 576.708L226.759 576.612L283.448 576.505L340.138 576.384L396.828 576.249L453.517 576.098L510.207 575.929L566.897 575.74L623.586 575.527L680.276 575.29L736.966 575.023L793.655 574.725L850.345 574.391L907.034 574.017L963.724 573.598L1020.41 573.129L1077.1 572.603L1133.79 572.015L1190.48 571.355L1247.17 570.617L1303.86 569.79L1360.55 568.864L1417.24 567.826L1473.93 566.665L1530.62 565.363L1587.31 563.906L1644 562.274" stroke="#0A043C"/>
</g>
<defs>
<linearGradient id="paint0_linear" x1="1537.5" y1="-150" x2="782.5" y2="992.5" gradientUnits="userSpaceOnUse">
<stop stop-color="#09D1D1"/>
<stop offset="1" stop-color="#04C2C9"/>
</linearGradient>
<clipPath id="clip0">
<rect width="1644" height="577" fill="white"/>
</clipPath>
</defs>
</svg>
