<svg width="1070" height="1001" viewBox="0 0 1070 1001" fill="none" xmlns="http://www.w3.org/2000/svg">
<g id="header-illustration">
<path id="Vector" d="M1023 926.501C1017.8 1030.14 744.586 1021.44 745 926.495C750.205 822.865 1023.41 831.565 1023 926.501Z" fill="#77B079"/>
<path id="Vector_2" d="M758.525 524.811C758.525 524.811 715.307 558.767 736.916 566.484C758.525 574.202 772.416 538.702 772.416 538.702L758.525 524.811Z" fill="#FFB8B8"/>
<path id="Vector_3" d="M760.068 512.463L750.807 527.898C750.807 527.898 766.242 527.898 769.329 551.05L781.677 535.615L760.068 512.463Z" fill="#CFCCE0"/>
<path id="Vector_4" d="M965.35 864.375L966.894 910.679L948.372 921.483L940.655 916.853L942.198 864.375H965.35Z" fill="#FFB8B8"/>
<path id="Vector_5" d="M855.763 852.027L858.85 901.418L815.633 919.94L818.72 893.701C818.72 893.701 831.068 873.635 827.981 852.027H855.763Z" fill="#FFB8B8"/>
<path id="Vector_6" d="M922.133 480.05C922.133 480.05 946.829 544.876 951.459 585.006C956.089 625.136 963.807 731.636 963.807 731.636L979.242 869.005L936.024 875.179L917.503 736.267L875.829 598.897L866.568 736.266L858.851 861.288L818.72 862.831L815.633 733.18L798.655 568.028L807.916 489.311L922.133 480.05Z" fill="#2F2E41"/>
<path id="Vector_7" d="M945.285 913.766C945.285 913.766 947.817 887.843 966.616 902.348L969.981 899.875L985.415 933.831C985.415 933.831 1003.94 960.07 971.524 963.157C939.111 966.244 942.198 933.831 942.198 933.831L939.111 919.94L940.655 910.843L945.285 913.766Z" fill="#2B7749"/>
<path id="Vector_8" d="M855.763 882.896C859.563 885.069 862.711 888.218 864.883 892.018C867.054 895.818 868.169 900.129 868.111 904.505C868.111 919.94 866.568 921.483 866.568 921.483L843.416 927.657C843.416 927.657 827.981 926.114 818.72 935.375C809.459 944.635 763.155 950.809 763.155 938.462C763.155 926.114 801.742 906.049 801.742 906.049C801.742 906.049 813.201 886.696 821.363 888.655C829.524 890.614 832.611 893.701 832.611 895.244C832.611 896.788 827.981 907.592 827.981 907.592C827.981 907.592 854.22 901.418 855.763 882.896Z" fill="#2B7749"/>
<path id="Vector_9" d="M852.677 290.203C873.988 290.203 891.263 272.927 891.263 251.616C891.263 230.305 873.988 213.029 852.677 213.029C831.366 213.029 814.09 230.305 814.09 251.616C814.09 272.927 831.366 290.203 852.677 290.203Z" fill="#FFB8B8"/>
<path id="Vector_10" d="M881.231 261.648L898.209 300.235L851.905 366.604C851.905 366.604 848.818 294.061 839.557 281.713C830.296 269.365 881.231 261.648 881.231 261.648Z" fill="#FFB8B8"/>
<path id="Vector_11" d="M859.622 341.909L867.34 321.844L873.513 323.387L881.231 317.213L892.035 283.257L907.47 294.061L927.535 496.256L802.514 499.343L819.492 358.887L834.927 318.757L846.068 304.028L853.448 326.474L859.622 341.909Z" fill="#827C9C"/>
<path id="Vector_12" d="M895.122 428.343L899.845 288.724C899.845 288.724 909.013 289.431 912.1 294.061C915.187 298.691 966.122 307.952 966.122 307.952L956.861 451.495C956.861 451.495 995.448 565.712 981.557 571.886C967.665 578.06 942.97 576.517 942.97 576.517L895.122 428.343Z" fill="#2B7749"/>
<path id="Vector_13" d="M820.264 410.593L836.637 316.495L800.198 341.137L809.459 409.05L801.742 455.354C801.742 455.354 772.416 583.462 781.677 588.093C790.938 592.723 801.742 588.093 801.742 588.093L820.264 458.441V410.593Z" fill="#2B7749"/>
<path id="Vector_14" d="M811.003 338.05L800.198 341.137L795.568 402.876L787.851 456.898L750.807 523.267C750.807 523.267 769.329 510.919 777.046 546.419L817.842 475.393L811.003 338.05Z" fill="#2B7749"/>
<path id="Vector_15" d="M931.394 512.463C931.394 512.463 888.176 546.419 909.785 554.137C931.394 561.854 945.285 526.354 945.285 526.354L931.394 512.463Z" fill="#FFB8B8"/>
<path id="Vector_16" d="M957.633 529.441L943.742 546.419L925.22 514.006L932.937 500.115L957.633 529.441Z" fill="#CFCCE0"/>
<path id="Vector_17" d="M751 359H700V405H751V359Z" fill="#FFE143"/>
<path id="Vector_18" d="M749 534H698V580H749V534Z" fill="#FFE143"/>
<path id="Vector_19" d="M750 709H699V755H750V709Z" fill="#FFE143"/>
<path id="Vector_20" d="M622 341H208V436H622V341Z" fill="#22D168"/>
<path id="Vector_21" d="M622 507H208V602H622V507Z" fill="#22D168"/>
<path id="Vector_22" d="M622 680H208V775H622V680Z" fill="#22D168"/>
<path id="Vector_23" d="M954.546 313.355L966.894 307.181C966.894 307.181 976.154 319.528 977.698 330.333C979.241 341.137 986.959 355.028 986.959 362.746C986.959 370.463 1008.57 443.006 1008.57 443.006L959.176 543.332C959.176 543.332 948.372 506.289 925.22 503.202L963.807 449.18L942.198 410.593L954.546 313.355Z" fill="#2B7749"/>
<path id="Vector_24" d="M884.98 214.851L892.256 211.937C892.256 211.937 877.042 195.187 855.874 196.644L861.827 190.089C861.827 190.089 847.274 184.263 834.045 199.557C827.09 207.596 819.043 217.046 814.027 227.692H806.234L809.487 234.853L798.104 242.014L809.787 240.728C809.091 244.649 808.984 248.653 809.47 252.606C809.971 256.56 811.989 260.165 815.098 262.66V262.66C815.098 262.66 824.122 243.981 824.122 241.068V248.351C824.122 248.351 831.399 241.796 831.399 237.427L835.368 242.525L837.352 234.514L861.827 242.525L857.858 235.97L873.073 238.155L867.119 230.144C867.119 230.144 884.318 239.611 884.98 247.622C885.641 255.633 890.675 263.224 890.675 263.224C890.675 263.224 904.163 225.774 884.98 214.851Z" fill="#2F2E41"/>
<path id="Vector_25" d="M884.318 250.844C886.705 250.844 888.64 248.425 888.64 245.442C888.64 242.458 886.705 240.04 884.318 240.04C881.931 240.04 879.996 242.458 879.996 245.442C879.996 248.425 881.931 250.844 884.318 250.844Z" fill="#FFB8B8"/>
<path id="Vector_26" d="M332.601 507.118H199.361V469.782H268.91L332.601 507.118Z" fill="#44BC74"/>
<path id="Vector_27" d="M198.995 501.994V611.075H631.66V501.994H198.995ZM367.742 592.773H227.181V577.399H367.742V592.773ZM603.475 564.221H227.181V548.847H603.475V564.221ZM603.475 535.67H227.181V520.296H603.475V535.67Z" fill="white"/>
<path id="Vector_28" d="M332.601 330.685H199.361V293.348H268.91L332.601 330.685Z" fill="#44BC74"/>
<path id="Vector_29" d="M199 333V442.081H631.665V333H199ZM367.747 423.779H227.185V408.405H367.747V423.779ZM449.009 395.228H227.185V379.854H449.009L449.009 395.228ZM603.479 366.676H227.185V351.302H603.479V366.676Z" fill="white"/>
<path id="Vector_30" d="M332.601 679.891H199.361V642.555H268.91L332.601 679.891Z" fill="#44BC74"/>
<path id="Vector_31" d="M198.995 672.57V781.652H631.66V672.57H198.995ZM449.004 763.349H227.181V747.976H449.004V763.349ZM449.004 734.798H227.181V719.424H449.004V734.798ZM603.475 706.246H227.181V690.873H603.475V706.246Z" fill="white"/>
<path id="Vector_32" d="M754.285 412.679H692.789V351.183H734.519V352.647H694.254V411.215H752.821V381.931H754.285V412.679Z" fill="#3F3D56"/>
<path id="Vector_33" d="M723.22 396.638C721.799 392.442 703.978 378.178 714.899 375.781L723.854 387.722L765.026 346.55L769.167 350.691L723.22 396.638Z" fill="#44BC74"/>
<path id="Vector_34" d="M754.285 586.916H692.789V525.42H734.519V526.885H694.254V585.452H752.821V556.168H754.285V586.916Z" fill="#3F3D56"/>
<path id="Vector_35" d="M723.22 570.876C721.799 566.68 703.978 552.416 714.899 550.018L723.854 561.959L765.026 520.788L769.167 524.928L723.22 570.876Z" fill="#44BC74"/>
<path id="Vector_36" d="M754.285 760.421H692.789V698.926H734.519V700.39H694.254V758.957H752.821V729.673H754.285V760.421Z" fill="#3F3D56"/>
<path id="Vector_37" d="M723.22 744.381C721.799 740.185 703.978 725.921 714.899 723.524L723.854 735.464L765.026 694.293L769.167 698.434L723.22 744.381Z" fill="#44BC74"/>
<path id="Vector_38" d="M13.7085 764.348C16.7378 765.449 19.9814 765.832 23.1838 765.466C26.3862 765.1 29.4597 763.995 32.1622 762.238C34.8647 760.481 37.1222 758.121 38.7569 755.343C40.3915 752.565 41.3586 749.445 41.5819 746.23C41.8051 743.014 41.2785 739.791 40.0435 736.814C38.8085 733.836 36.8988 731.187 34.4651 729.073C32.0313 726.96 29.14 725.441 26.019 724.636C22.8979 723.83 19.6325 723.761 16.4801 724.433L17.001 735.145L11.9329 725.965C6.95879 728.302 3.11608 732.518 1.24922 737.687C0.586225 739.498 0.183176 741.393 0.0520935 743.317C-0.267839 747.831 0.892248 752.326 3.35656 756.121C5.82087 759.916 9.45509 762.804 13.7085 764.348V764.348Z" fill="#6F6AAC"/>
<path id="Vector_39" d="M38.7859 888.591C36.9968 879.481 44.7492 871.405 52.4068 866.155C60.0643 860.905 69.0117 855.747 71.6245 846.838C75.3795 834.034 64.1945 822.308 55.4889 812.196C49.0301 804.692 43.4836 796.449 38.9653 787.639C37.1542 784.106 35.4897 780.414 35.013 776.473C34.3266 770.797 36.15 765.15 37.987 759.736C44.1064 741.702 50.6493 723.818 57.6154 706.086" stroke="#6F6AAC" stroke-miterlimit="10"/>
<path id="Vector_40" d="M45.248 693.71C46.4368 690.429 48.4321 687.501 51.05 685.195C53.6679 682.888 56.8241 681.278 60.228 680.512L61.9416 690.696L65.1186 680C69.5297 680.065 73.8059 681.531 77.3298 684.185C80.8537 686.839 83.443 690.545 84.7237 694.766C86.0045 698.988 85.9105 703.507 84.4553 707.672C83.0001 711.837 80.2591 715.431 76.6278 717.936C72.9966 720.442 68.6632 721.728 64.2531 721.61C59.8431 721.492 55.5847 719.976 52.0927 717.28C48.6007 714.584 46.0559 710.848 44.8256 706.611C43.5953 702.375 43.7432 697.857 45.248 693.71H45.248Z" fill="#6F6AAC"/>
<path id="Vector_41" d="M46.7259 806.379C51.53 808.122 56.8074 808.036 61.5522 806.137C66.297 804.239 70.1773 800.661 72.4537 796.086C74.73 791.51 75.2431 786.257 73.8952 781.328C72.5473 776.398 69.4327 772.137 65.1449 769.356L62.7037 777.576L60.9727 767.272C60.9556 767.264 60.9379 767.257 60.9197 767.252C58.3501 766.318 55.6217 765.899 52.8904 766.02C50.1591 766.141 47.4784 766.799 45.0014 767.957C42.5245 769.114 40.2998 770.748 38.4546 772.765C36.6094 774.783 35.1798 777.144 34.2475 779.714C33.3151 782.284 32.8983 785.013 33.0209 787.744C33.1435 790.476 33.8031 793.156 34.9619 795.632C36.1207 798.108 37.7561 800.332 39.7746 802.176C41.7932 804.02 44.1552 805.448 46.7259 806.379H46.7259Z" fill="#6F6AAC"/>
<path id="Vector_42" d="M35.3197 846.402C36.1457 851.102 38.5628 855.375 42.1655 858.505C45.7682 861.635 50.3374 863.43 55.1069 863.591C59.8764 863.752 64.5561 862.267 68.3612 859.387C72.1663 856.507 74.8654 852.406 76.0057 847.772C77.1461 843.138 76.6584 838.253 74.6245 833.936C72.5905 829.619 69.1341 826.132 64.8347 824.061C60.5353 821.99 55.6546 821.46 51.0109 822.56C46.3673 823.661 42.2432 826.324 39.3303 830.104L48.603 844.061L35.933 836.653C34.9506 839.807 34.7403 843.15 35.3197 846.402V846.402Z" fill="#6F6AAC"/>
<path id="Vector_43" d="M9.89044 900.931C9.89044 900.931 28.2559 893.734 33.7908 889.793C39.3257 885.852 62.0415 881.145 63.4146 887.466C64.7876 893.787 91.0144 918.904 70.2799 919.071C49.5454 919.239 22.1021 922.473 16.5779 919.108C11.0537 915.743 9.89044 900.931 9.89044 900.931Z" fill="#656380"/>
<path id="Vector_44" opacity="0.2" d="M70.6499 916.872C49.9154 917.039 22.4722 920.274 16.9479 916.909C12.7409 914.346 11.0645 905.151 10.5035 900.908C10.1151 900.925 9.89044 900.932 9.89044 900.932C9.89044 900.932 11.0537 915.744 16.5779 919.109C22.1022 922.474 49.5454 919.239 70.2799 919.072C76.2651 919.024 78.3325 916.894 78.219 913.74C77.3875 915.646 75.1048 916.836 70.6499 916.872Z" fill="black"/>
<path id="Vector_45" d="M1006 208H1029C1029 210.387 1028.04 212.676 1026.34 214.364C1024.64 216.052 1022.33 217 1019.92 217H1015.08C1012.67 217 1010.36 216.052 1008.66 214.364C1006.96 212.676 1006 210.387 1006 208H1006Z" fill="#3F3D56"/>
<path id="Vector_46" d="M1035 187V178.75C1035 168.781 1046.5 159.352 1053.96 152.625C1064.47 143.148 1070 130.415 1070 115.5C1070 102.396 1064.49 89.826 1054.67 80.5469C1044.86 71.2679 1031.54 66.0366 1017.65 66.0002C1003.75 65.9637 990.4 71.125 980.532 80.3525C970.663 89.5799 965.078 102.12 965 115.225C965 115.316 965 115.408 965 115.5C965 129.883 970.764 143.478 981.042 152.625C988.461 159.228 1000 168.678 1000 178.75V187" fill="url(#paint0_linear)"/>
<path id="Vector_47" d="M1033.93 189C1033.76 189 1033.61 188.97 1033.46 188.912C1033.31 188.854 1033.17 188.769 1033.06 188.662C1032.95 188.554 1032.86 188.427 1032.8 188.287C1032.73 188.147 1032.7 187.997 1032.7 187.845V179.616C1032.7 169.943 1042.8 160.913 1050.18 154.319C1050.79 153.772 1051.39 153.24 1051.96 152.724C1062.16 143.512 1067.55 130.996 1067.55 116.529C1067.55 89.4906 1045.13 68.3107 1016.5 68.3107C1016.45 68.3105 1016.4 68.3105 1016.36 68.3105C1002.88 68.3248 989.964 73.3766 980.424 82.3614C970.884 91.3462 965.499 103.533 965.446 116.257V116.526C965.446 130.695 971.128 143.885 981.036 152.719C981.538 153.166 982.059 153.627 982.594 154.1C990.065 160.706 1000.3 169.754 1000.3 179.616V187.845C1000.3 188.151 1000.17 188.445 999.939 188.662C999.71 188.878 999.398 189 999.074 189C998.75 189 998.439 188.878 998.209 188.662C997.98 188.445 997.851 188.151 997.851 187.845V179.616C997.851 170.756 988.067 162.104 980.923 155.787C980.385 155.311 979.861 154.848 979.357 154.398C968.962 145.131 963 131.328 963 116.529V116.252C963.082 88.5145 987.004 66.0005 1016.35 66.0005C1016.4 66.0005 1016.45 66.0005 1016.5 66.0007C1023.54 65.9661 1030.51 67.2495 1037.02 69.7766C1043.53 72.3037 1049.44 76.0243 1054.41 80.7232C1059.39 85.4221 1063.33 91.006 1066 97.1519C1068.68 103.298 1070.04 109.884 1070 116.529C1070 131.642 1064.35 144.735 1053.65 154.394C1053.07 154.912 1052.48 155.447 1051.86 155.997C1044.81 162.302 1035.15 170.937 1035.15 179.616V187.845C1035.15 187.997 1035.12 188.147 1035.06 188.287C1034.99 188.427 1034.9 188.554 1034.79 188.662C1034.68 188.769 1034.54 188.854 1034.39 188.912C1034.24 188.97 1034.09 189 1033.93 189Z" fill="#3F3D56"/>
<path id="Vector_48" d="M1028.91 204H1005.09C1004.54 204 1004 203.789 1003.61 203.414C1003.22 203.039 1003 202.53 1003 202C1003 201.47 1003.22 200.961 1003.61 200.586C1004 200.211 1004.54 200 1005.09 200H1028.91C1029.46 200 1030 200.211 1030.39 200.586C1030.78 200.961 1031 201.47 1031 202C1031 202.53 1030.78 203.039 1030.39 203.414C1030 203.789 1029.46 204 1028.91 204V204Z" fill="#6C63FF"/>
<path id="Vector_49" d="M1033.96 197H999.042C998.5 197 997.981 196.842 997.598 196.561C997.215 196.279 997 195.898 997 195.5C997 195.102 997.215 194.721 997.598 194.439C997.981 194.158 998.5 194 999.042 194H1033.96C1034.5 194 1035.02 194.158 1035.4 194.439C1035.78 194.721 1036 195.102 1036 195.5C1036 195.898 1035.78 196.279 1035.4 196.561C1035.02 196.842 1034.5 197 1033.96 197Z" fill="#6C63FF"/>
<path id="Vector_50" d="M1017 190C1016.74 190 1016.48 189.95 1016.23 189.853C1015.99 189.755 1015.77 189.613 1015.59 189.433C1015.4 189.253 1015.25 189.04 1015.15 188.805C1015.05 188.57 1015 188.319 1015 188.064V143.936C1015 143.422 1015.21 142.93 1015.59 142.567C1015.96 142.204 1016.47 142 1017 142C1017.53 142 1018.04 142.204 1018.41 142.567C1018.79 142.93 1019 143.422 1019 143.936V188.064C1019 188.319 1018.95 188.57 1018.85 188.805C1018.75 189.04 1018.6 189.253 1018.41 189.433C1018.23 189.613 1018.01 189.755 1017.77 189.853C1017.52 189.95 1017.26 190 1017 190V190Z" fill="white"/>
<path id="Vector_51" d="M1017 146C1010.35 146 1002.17 140.576 1001.83 140.345C1001.61 140.199 1001.43 140.017 1001.29 139.808C1001.15 139.599 1001.06 139.367 1001.02 139.126C1000.98 138.885 1001 138.639 1001.06 138.403C1001.13 138.166 1001.25 137.944 1001.41 137.748C1001.57 137.553 1001.77 137.388 1002 137.263C1002.24 137.138 1002.49 137.055 1002.76 137.02C1003.03 136.985 1003.3 136.997 1003.56 137.057C1003.83 137.116 1004.07 137.222 1004.29 137.367C1006.34 138.736 1012.61 142.289 1017 142.289C1021.39 142.289 1027.66 138.736 1029.71 137.366C1029.93 137.221 1030.18 137.116 1030.44 137.056C1030.7 136.997 1030.97 136.984 1031.24 137.02C1031.51 137.055 1031.77 137.138 1032 137.263C1032.23 137.388 1032.43 137.553 1032.59 137.749C1032.75 137.944 1032.87 138.166 1032.94 138.403C1033 138.639 1033.02 138.885 1032.98 139.126C1032.94 139.367 1032.85 139.599 1032.71 139.808C1032.57 140.017 1032.39 140.2 1032.17 140.345C1031.82 140.576 1023.65 146 1017 146Z" fill="white"/>
<path id="Vector_52" d="M603 66.489C603.521 56.525 607.847 47.141 615.084 40.2725C622.321 33.404 631.918 29.5748 641.896 29.5746C643.08 29.5746 644.249 29.6363 645.406 29.7397C649.956 21.9119 656.48 15.4149 664.326 10.8975C672.173 6.38006 681.068 4.00038 690.122 3.9961C699.176 3.99182 708.073 6.36309 715.924 10.8731C723.775 15.3831 730.305 21.8739 734.862 29.6974C735.838 29.6241 736.821 29.5746 737.815 29.5746C747.793 29.5748 757.39 33.404 764.627 40.2725C771.865 47.141 776.19 56.525 776.712 66.489" fill="url(#paint1_linear)"/>
<path id="Vector_53" d="M611.112 63.4929C611.634 53.5289 615.959 44.1449 623.197 37.2764C630.434 30.4079 640.031 26.5787 650.009 26.5785C651.192 26.5785 652.361 26.6402 653.518 26.7436C658.068 18.9158 664.592 12.4188 672.439 7.90138C680.286 3.38397 689.18 1.00429 698.234 1.00001C707.288 0.995725 716.185 3.36699 724.036 7.87699C731.887 12.387 738.417 18.8778 742.975 26.7013C743.951 26.628 744.933 26.5785 745.928 26.5785C755.906 26.5787 765.503 30.4079 772.74 37.2764C779.977 44.1449 784.303 53.5289 784.824 63.4929" stroke="white" stroke-miterlimit="10"/>
<path id="Vector_54" d="M197 109.489C197.521 99.525 201.847 90.141 209.084 83.2725C216.321 76.404 225.918 72.5748 235.896 72.5746C237.08 72.5746 238.249 72.6363 239.406 72.7397C243.956 64.9119 250.48 58.4149 258.326 53.8975C266.173 49.3801 275.068 47.0004 284.122 46.9961C293.176 46.9918 302.073 49.3631 309.924 53.8731C317.775 58.3831 324.305 64.874 328.862 72.6974C329.838 72.6241 330.821 72.5746 331.815 72.5746C341.793 72.5748 351.39 76.404 358.628 83.2725C365.865 90.141 370.19 99.525 370.712 109.489" fill="url(#paint2_linear)"/>
<path id="Vector_55" d="M205.112 106.493C205.634 96.5289 209.959 87.1449 217.197 80.2764C224.434 73.4079 234.031 69.5787 244.009 69.5785C245.192 69.5785 246.361 69.6402 247.518 69.7436C252.068 61.9158 258.592 55.4188 266.439 50.9014C274.286 46.384 283.18 44.0043 292.234 44C301.288 43.9957 310.185 46.367 318.036 50.877C325.887 55.387 332.417 61.8778 336.975 69.7013C337.951 69.628 338.933 69.5785 339.928 69.5785C349.906 69.5787 359.503 73.4079 366.74 80.2764C373.977 87.1449 378.303 96.5289 378.824 106.493" stroke="white" stroke-miterlimit="10"/>
</g>
<defs>
<linearGradient id="paint0_linear" x1="1371" y1="219" x2="587" y2="35" gradientUnits="userSpaceOnUse">
<stop stop-color="#58D9C2"/>
<stop offset="1" stop-color="#D1D4D8"/>
</linearGradient>
<linearGradient id="paint1_linear" x1="817" y1="-45" x2="603" y2="155" gradientUnits="userSpaceOnUse">
<stop stop-color="#1BC8E0"/>
<stop offset="1" stop-color="#F2F2F2"/>
</linearGradient>
<linearGradient id="paint2_linear" x1="425" y1="3.00001" x2="163" y2="193" gradientUnits="userSpaceOnUse">
<stop stop-color="#1BC8E0"/>
<stop offset="1" stop-color="#F2F2F2"/>
</linearGradient>
</defs>
</svg>
