<svg width="86" height="241" viewBox="0 0 86 241" fill="none" xmlns="http://www.w3.org/2000/svg">
<g id="header__flower">
<path id="Vector" d="M13.7085 84.3482C16.7378 85.4495 19.9814 85.8321 23.1838 85.4659C26.3862 85.0997 29.4597 83.9947 32.1622 82.238C34.8647 80.4813 37.1222 78.121 38.7569 75.343C40.3915 72.565 41.3586 69.4453 41.5819 66.2298C41.8051 63.0143 41.2785 59.7909 40.0435 56.8136C38.8085 53.8364 36.8988 51.1867 34.4651 49.0734C32.0313 46.96 29.14 45.4408 26.019 44.6355C22.8979 43.8303 19.6325 43.761 16.4801 44.433L17.001 55.1451L11.9329 45.9647C6.95879 48.3019 3.11608 52.5183 1.24922 57.6873C0.586225 59.4979 0.183176 61.3934 0.0520935 63.3172C-0.267839 67.8308 0.892248 72.3258 3.35656 76.1208C5.82087 79.9159 9.45509 82.8042 13.7085 84.3482V84.3482Z" fill="#6F6AAC"/>
<path id="Vector_2" d="M38.7859 208.591C36.9968 199.481 44.7492 191.405 52.4068 186.155C60.0643 180.905 69.0117 175.747 71.6245 166.838C75.3795 154.034 64.1945 142.308 55.4889 132.196C49.0301 124.692 43.4836 116.449 38.9653 107.639C37.1542 104.106 35.4897 100.414 35.013 96.4727C34.3266 90.7973 36.15 85.1496 37.987 79.736C44.1064 61.7015 50.6493 43.8182 57.6154 26.0859" stroke="#6F6AAC" stroke-miterlimit="10"/>
<path id="Vector_3" d="M45.248 13.7095C46.4368 10.4294 48.4321 7.50117 51.05 5.19476C53.6679 2.88835 56.8241 1.27794 60.228 0.511902L61.9416 10.6957L65.1186 0C69.5297 0.0654157 73.8059 1.53098 77.3298 4.18512C80.8537 6.83926 83.443 10.5446 84.7237 14.7662C86.0045 18.9878 85.9105 23.5072 84.4553 27.6719C83.0001 31.8366 80.2591 35.4311 76.6278 37.9365C72.9966 40.4418 68.6632 41.7283 64.2531 41.6102C59.8431 41.4922 55.5847 39.9757 52.0927 37.2797C48.6007 34.5837 46.0559 30.8477 44.8256 26.6111C43.5953 22.3746 43.7432 17.8566 45.248 13.7095H45.248Z" fill="#6F6AAC"/>
<path id="Vector_4" d="M46.7259 126.379C51.53 128.122 56.8074 128.036 61.5522 126.137C66.297 124.239 70.1773 120.661 72.4537 116.086C74.73 111.51 75.2431 106.257 73.8952 101.328C72.5473 96.3981 69.4327 92.137 65.1449 89.3564L62.7037 97.5756L60.9727 87.2718C60.9556 87.2637 60.9379 87.257 60.9197 87.2517C58.3501 86.3178 55.6217 85.8994 52.8904 86.0204C50.1591 86.1413 47.4784 86.7993 45.0014 87.9567C42.5245 89.114 40.2998 90.7481 38.4546 92.7655C36.6094 94.7829 35.1798 97.1441 34.2475 99.7142C33.3151 102.284 32.8983 105.013 33.0209 107.744C33.1435 110.476 33.8031 113.156 34.9619 115.632C36.1207 118.108 37.7561 120.332 39.7746 122.176C41.7932 124.02 44.1552 125.448 46.7259 126.379H46.7259Z" fill="#6F6AAC"/>
<path id="Vector_5" d="M35.3197 166.402C36.1457 171.102 38.5628 175.375 42.1655 178.505C45.7682 181.635 50.3374 183.43 55.1069 183.591C59.8764 183.752 64.5561 182.267 68.3612 179.387C72.1663 176.507 74.8654 172.406 76.0057 167.772C77.1461 163.138 76.6584 158.253 74.6245 153.936C72.5905 149.619 69.1341 146.132 64.8347 144.061C60.5353 141.99 55.6546 141.46 51.0109 142.56C46.3673 143.661 42.2432 146.324 39.3303 150.104L48.603 164.061L35.933 156.653C34.9506 159.807 34.7403 163.15 35.3197 166.402V166.402Z" fill="#6F6AAC"/>
<path id="Vector_6" d="M9.89044 220.931C9.89044 220.931 28.2559 213.734 33.7908 209.793C39.3257 205.852 62.0415 201.145 63.4146 207.466C64.7876 213.787 91.0144 238.904 70.2799 239.071C49.5454 239.239 22.1021 242.473 16.5779 239.108C11.0537 235.743 9.89044 220.931 9.89044 220.931Z" fill="#656380"/>
</g>
</svg>
