<svg width="183" height="67" viewBox="0 0 183 67" fill="none" xmlns="http://www.w3.org/2000/svg">
<g id="header__cloud-1">
<path id="Vector" d="M0 66.489C0.521461 56.525 4.84688 47.141 12.0841 40.2725C19.3213 33.404 28.9184 29.5748 38.8961 29.5746C40.0799 29.5746 41.2488 29.6363 42.4057 29.7397C46.9557 21.9119 53.4798 15.4149 61.3265 10.8975C69.1731 6.38006 78.0677 4.00038 87.1218 3.9961C96.1759 3.99182 105.073 6.36309 112.924 10.8731C120.775 15.3831 127.305 21.874 131.862 29.6974C132.838 29.6241 133.821 29.5746 134.815 29.5746C144.793 29.5748 154.39 33.404 161.628 40.2725C168.865 47.141 173.19 56.525 173.712 66.489" fill="url(#paint0_linear)"/>
<path id="Vector_2" d="M8.11243 63.4929C8.63389 53.5289 12.9593 44.1449 20.1965 37.2764C27.4338 30.4079 37.0309 26.5787 47.0085 26.5785C48.1923 26.5785 49.3612 26.6402 50.5181 26.7436C55.0681 18.9158 61.5923 12.4188 69.439 7.90137C77.2856 3.38396 86.1801 1.00429 95.2343 1.00001C104.288 0.995725 113.185 3.36698 121.036 7.87697C128.887 12.387 135.417 18.8778 139.975 26.7013C140.951 26.628 141.933 26.5785 142.928 26.5785C152.906 26.5787 162.503 30.4079 169.74 37.2764C176.977 44.1449 181.303 53.5289 181.824 63.4929" stroke="white" stroke-miterlimit="10"/>
</g>
<defs>
<linearGradient id="paint0_linear" x1="228" y1="-40" x2="-34" y2="150" gradientUnits="userSpaceOnUse">
<stop stop-color="#1BC8E0"/>
<stop offset="1" stop-color="#F2F2F2"/>
</linearGradient>
</defs>
</svg>
