<svg width="872" height="935" viewBox="0 0 872 935" fill="none" xmlns="http://www.w3.org/2000/svg">
<g id="header-illustration">
<path id="Vector" d="M825 860.501C819.795 964.136 546.586 955.437 547 860.495C552.205 756.865 825.413 765.565 825 860.501Z" fill="#77B079"/>
<path id="Vector_2" d="M560.525 458.811C560.525 458.811 517.307 492.767 538.916 500.484C560.525 508.202 574.416 472.702 574.416 472.702L560.525 458.811Z" fill="#FFB8B8"/>
<path id="Vector_3" d="M562.068 446.463L552.807 461.898C552.807 461.898 568.242 461.898 571.329 485.05L583.677 469.615L562.068 446.463Z" fill="#CFCCE0"/>
<path id="Vector_4" d="M767.35 798.375L768.894 844.679L750.372 855.483L742.655 850.853L744.198 798.375H767.35Z" fill="#FFB8B8"/>
<path id="Vector_5" d="M657.763 786.027L660.85 835.418L617.633 853.94L620.72 827.701C620.72 827.701 633.068 807.635 629.981 786.027H657.763Z" fill="#FFB8B8"/>
<path id="Vector_6" d="M724.133 414.05C724.133 414.05 748.829 478.876 753.459 519.006C758.089 559.136 765.807 665.636 765.807 665.636L781.242 803.005L738.024 809.179L719.503 670.267L677.829 532.897L668.568 670.266L660.851 795.288L620.72 796.831L617.633 667.18L600.655 502.028L609.916 423.311L724.133 414.05Z" fill="#2F2E41"/>
<path id="Vector_7" d="M747.285 847.766C747.285 847.766 749.817 821.843 768.616 836.348L771.981 833.875L787.415 867.831C787.415 867.831 805.937 894.07 773.524 897.157C741.111 900.244 744.198 867.831 744.198 867.831L741.111 853.94L742.655 844.843L747.285 847.766Z" fill="#2B7749"/>
<path id="Vector_8" d="M657.763 816.896C661.563 819.069 664.711 822.218 666.883 826.018C669.054 829.818 670.169 834.129 670.111 838.505C670.111 853.94 668.568 855.483 668.568 855.483L645.416 861.657C645.416 861.657 629.981 860.114 620.72 869.375C611.459 878.635 565.155 884.809 565.155 872.462C565.155 860.114 603.742 840.049 603.742 840.049C603.742 840.049 615.201 820.696 623.363 822.655C631.524 824.614 634.611 827.701 634.611 829.244C634.611 830.788 629.981 841.592 629.981 841.592C629.981 841.592 656.22 835.418 657.763 816.896Z" fill="#2B7749"/>
<path id="Vector_9" d="M654.677 224.203C675.988 224.203 693.263 206.927 693.263 185.616C693.263 164.305 675.988 147.029 654.677 147.029C633.366 147.029 616.09 164.305 616.09 185.616C616.09 206.927 633.366 224.203 654.677 224.203Z" fill="#FFB8B8"/>
<path id="Vector_10" d="M683.231 195.648L700.209 234.235L653.905 300.604C653.905 300.604 650.818 228.061 641.557 215.713C632.296 203.365 683.231 195.648 683.231 195.648Z" fill="#FFB8B8"/>
<path id="Vector_11" d="M661.622 275.909L669.34 255.844L675.513 257.387L683.231 251.213L694.035 217.257L709.47 228.061L729.535 430.256L604.514 433.343L621.492 292.887L636.927 252.757L648.068 238.028L655.448 260.474L661.622 275.909Z" fill="#827C9C"/>
<path id="Vector_12" d="M697.122 362.343L701.845 222.724C701.845 222.724 711.013 223.431 714.1 228.061C717.187 232.691 768.122 241.952 768.122 241.952L758.861 385.495C758.861 385.495 797.448 499.712 783.557 505.886C769.665 512.06 744.97 510.517 744.97 510.517L697.122 362.343Z" fill="#2B7749"/>
<path id="Vector_13" d="M622.264 344.593L638.637 250.495L602.198 275.137L611.459 343.05L603.742 389.354C603.742 389.354 574.416 517.462 583.677 522.093C592.938 526.723 603.742 522.093 603.742 522.093L622.264 392.441V344.593Z" fill="#2B7749"/>
<path id="Vector_14" d="M613.003 272.05L602.198 275.137L597.568 336.876L589.851 390.898L552.807 457.267C552.807 457.267 571.329 444.919 579.046 480.419L619.842 409.393L613.003 272.05Z" fill="#2B7749"/>
<path id="Vector_15" d="M733.394 446.463C733.394 446.463 690.176 480.419 711.785 488.137C733.394 495.854 747.285 460.354 747.285 460.354L733.394 446.463Z" fill="#FFB8B8"/>
<path id="Vector_16" d="M759.633 463.441L745.742 480.419L727.22 448.006L734.937 434.115L759.633 463.441Z" fill="#CFCCE0"/>
<path id="Vector_17" d="M553 293H502V339H553V293Z" fill="#FFE143"/>
<path id="Vector_18" d="M551 468H500V514H551V468Z" fill="#FFE143"/>
<path id="Vector_19" d="M552 643H501V689H552V643Z" fill="#FFE143"/>
<path id="Vector_20" d="M424 275H10V370H424V275Z" fill="#22D168"/>
<path id="Vector_21" d="M424 441H10V536H424V441Z" fill="#22D168"/>
<path id="Vector_22" d="M424 614H10V709H424V614Z" fill="#22D168"/>
<path id="Vector_23" d="M756.546 247.355L768.894 241.181C768.894 241.181 778.154 253.528 779.698 264.333C781.241 275.137 788.959 289.028 788.959 296.746C788.959 304.463 810.567 377.006 810.567 377.006L761.176 477.332C761.176 477.332 750.372 440.289 727.22 437.202L765.807 383.18L744.198 344.593L756.546 247.355Z" fill="#2B7749"/>
<path id="Vector_24" d="M686.98 148.851L694.256 145.937C694.256 145.937 679.042 129.187 657.874 130.644L663.827 124.089C663.827 124.089 649.274 118.263 636.045 133.557C629.09 141.596 621.043 151.046 616.027 161.692H608.234L611.487 168.853L600.104 176.014L611.787 174.728C611.091 178.649 610.984 182.653 611.47 186.606C611.971 190.561 613.989 194.165 617.098 196.66C617.098 196.66 626.122 177.981 626.122 175.068V182.351C626.122 182.351 633.399 175.796 633.399 171.427L637.368 176.525L639.352 168.514L663.827 176.525L659.858 169.97L675.073 172.155L669.119 164.144C669.119 164.144 686.318 173.611 686.98 181.622C687.641 189.633 692.675 197.224 692.675 197.224C692.675 197.224 706.163 159.774 686.98 148.851Z" fill="#2F2E41"/>
<path id="Vector_25" d="M686.318 184.844C688.705 184.844 690.64 182.425 690.64 179.442C690.64 176.458 688.705 174.04 686.318 174.04C683.931 174.04 681.996 176.458 681.996 179.442C681.996 182.425 683.931 184.844 686.318 184.844Z" fill="#FFB8B8"/>
<path id="Vector_26" d="M134.601 441.118H1.36096V403.782H70.91L134.601 441.118Z" fill="#44BC74"/>
<path id="Vector_27" d="M0.995117 435.994V545.075H433.66V435.994H0.995117ZM169.742 526.773H29.1806V511.399H169.742V526.773ZM405.475 498.221H29.1806V482.847H405.475V498.221ZM405.475 469.67H29.1806V454.296H405.475V469.67Z" fill="white"/>
<path id="Vector_28" d="M134.601 264.685H1.36096V227.348H70.91L134.601 264.685Z" fill="#44BC74"/>
<path id="Vector_29" d="M1 267V376.081H433.665V267H1ZM169.747 357.779H29.1854V342.405H169.747V357.779ZM251.009 329.228H29.1854V313.854H251.009L251.009 329.228ZM405.479 300.676H29.1855V285.302H405.479V300.676Z" fill="white"/>
<path id="Vector_30" d="M134.601 613.891H1.36096V576.555H70.91L134.601 613.891Z" fill="#44BC74"/>
<path id="Vector_31" d="M0.995117 606.57V715.652H433.66V606.57H0.995117ZM251.004 697.349H29.1806V681.976H251.004V697.349ZM251.004 668.798H29.1806V653.424H251.004V668.798ZM405.475 640.246H29.1806V624.873H405.475V640.246Z" fill="white"/>
<path id="Vector_32" d="M556.285 346.679H494.789V285.183H536.519V286.647H496.254V345.215H554.821V315.931H556.285V346.679Z" fill="#3F3D56"/>
<path id="Vector_33" d="M525.22 330.638C523.799 326.442 505.978 312.178 516.899 309.781L525.854 321.722L567.026 280.55L571.167 284.691L525.22 330.638Z" fill="#44BC74"/>
<path id="Vector_34" d="M556.285 520.916H494.789V459.42H536.519V460.885H496.254V519.452H554.821V490.168H556.285V520.916Z" fill="#3F3D56"/>
<path id="Vector_35" d="M525.22 504.876C523.799 500.68 505.978 486.416 516.899 484.018L525.854 495.959L567.026 454.788L571.167 458.928L525.22 504.876Z" fill="#44BC74"/>
<path id="Vector_36" d="M556.285 694.421H494.789V632.926H536.519V634.39H496.254V692.957H554.821V663.673H556.285V694.421Z" fill="#3F3D56"/>
<path id="Vector_37" d="M525.22 678.381C523.799 674.185 505.978 659.921 516.899 657.524L525.854 669.464L567.026 628.293L571.167 632.434L525.22 678.381Z" fill="#44BC74"/>
<path id="Vector_38" d="M808 142H831C831 144.387 830.043 146.676 828.341 148.364C826.638 150.052 824.329 151 821.921 151H817.079C814.671 151 812.362 150.052 810.659 148.364C808.957 146.676 808 144.387 808 142H808Z" fill="#3F3D56"/>
<path id="Vector_39" d="M837 121V112.75C837 102.781 848.499 93.3522 855.958 86.625C866.473 77.1478 872 64.4153 872 49.5C872 36.3956 866.489 23.826 856.674 14.5469C846.86 5.26786 833.544 0.0366439 819.646 0.00019178C805.747 -0.0362604 792.4 5.12502 782.532 14.3525C772.663 23.5799 767.078 36.1204 767 49.2246C767 49.3164 767 49.4082 767 49.5C767 63.8825 772.764 77.4778 783.042 86.625C790.461 93.2284 802 102.678 802 112.75V121" fill="#F0FF43"/>
<path id="Vector_40" d="M835.925 123C835.765 123 835.606 122.97 835.457 122.912C835.309 122.854 835.174 122.769 835.061 122.662C834.947 122.554 834.857 122.427 834.796 122.287C834.734 122.147 834.702 121.997 834.702 121.845V113.616C834.702 103.943 844.803 94.9129 852.179 88.3195C852.791 87.7721 853.386 87.2401 853.958 86.7239C864.161 77.5118 869.553 64.9958 869.553 50.5287C869.553 23.4906 847.128 2.31069 818.5 2.31069C818.452 2.3105 818.404 2.3105 818.356 2.3105C804.883 2.32478 791.964 7.37659 782.424 16.3614C772.884 25.3462 767.499 37.533 767.446 50.2572V50.5262C767.446 64.6948 773.128 77.8854 783.036 86.7186C783.538 87.1664 784.059 87.6273 784.594 88.1003C792.065 94.7065 802.297 103.754 802.297 113.616V121.845C802.297 122.151 802.168 122.445 801.939 122.662C801.71 122.878 801.398 123 801.074 123C800.75 123 800.439 122.878 800.209 122.662C799.98 122.445 799.851 122.151 799.851 121.845V113.616C799.851 104.756 790.067 96.104 782.923 89.7865C782.385 89.3113 781.861 88.8481 781.357 88.3984C770.962 79.1307 765 65.3277 765 50.5287V50.2516C765.082 22.5145 789.004 0.000490769 818.352 0.000490769C818.404 0.000490769 818.451 0.000490107 818.503 0.000678756C825.539 -0.033853 832.512 1.24954 839.019 3.77663C845.526 6.30371 851.438 10.0243 856.413 14.7232C861.388 19.4221 865.327 25.006 868.003 31.1519C870.678 37.2978 872.036 43.8838 871.999 50.5287C871.999 65.6417 866.345 78.7351 855.648 88.3935C855.074 88.912 854.476 89.447 853.86 89.997C846.807 96.3021 837.148 104.937 837.148 113.616V121.845C837.148 121.997 837.117 122.147 837.055 122.287C836.994 122.427 836.904 122.554 836.79 122.662C836.677 122.769 836.542 122.854 836.393 122.912C836.245 122.97 836.086 123 835.925 123Z" fill="#3F3D56"/>
<path id="Vector_41" d="M830.91 138H807.09C806.535 138 806.004 137.789 805.612 137.414C805.22 137.039 805 136.53 805 136C805 135.47 805.22 134.961 805.612 134.586C806.004 134.211 806.535 134 807.09 134H830.91C831.465 134 831.996 134.211 832.388 134.586C832.78 134.961 833 135.47 833 136C833 136.53 832.78 137.039 832.388 137.414C831.996 137.789 831.465 138 830.91 138Z" fill="#6C63FF"/>
<path id="Vector_42" d="M835.958 131H801.042C800.5 131 799.981 130.842 799.598 130.561C799.215 130.279 799 129.898 799 129.5C799 129.102 799.215 128.721 799.598 128.439C799.981 128.158 800.5 128 801.042 128H835.958C836.5 128 837.019 128.158 837.402 128.439C837.785 128.721 838 129.102 838 129.5C838 129.898 837.785 130.279 837.402 130.561C837.019 130.842 836.5 131 835.958 131Z" fill="#6C63FF"/>
<path id="Vector_43" d="M819 124C818.737 124 818.477 123.95 818.235 123.853C817.992 123.755 817.771 123.613 817.586 123.433C817.4 123.253 817.253 123.04 817.152 122.805C817.052 122.57 817 122.319 817 122.064V77.9356C817 77.4222 817.211 76.9299 817.586 76.5669C817.961 76.2039 818.47 76 819 76C819.53 76 820.039 76.2039 820.414 76.5669C820.789 76.9299 821 77.4222 821 77.9356V122.064C821 122.319 820.948 122.57 820.848 122.805C820.747 123.04 820.6 123.253 820.414 123.433C820.229 123.613 820.008 123.755 819.765 123.853C819.523 123.95 819.263 124 819 124Z" fill="#F49524"/>
<path id="Vector_44" d="M819 80C812.345 80 804.175 74.5758 803.83 74.3449C803.613 74.1995 803.43 74.0169 803.291 73.8077C803.153 73.5985 803.061 73.3668 803.022 73.1257C802.983 72.8846 802.996 72.6388 803.062 72.4025C803.129 72.1662 803.246 71.944 803.407 71.7485C803.569 71.5529 803.771 71.388 804.003 71.263C804.236 71.138 804.493 71.0555 804.76 71.0201C805.028 70.9847 805.301 70.9971 805.563 71.0567C805.825 71.1162 806.072 71.2217 806.289 71.3672C808.336 72.7355 814.612 76.2887 819 76.2887C823.388 76.2887 829.664 72.7355 831.712 71.3665C831.929 71.2211 832.175 71.1156 832.438 71.0561C832.7 70.9966 832.973 70.9843 833.24 71.0198C833.508 71.0553 833.765 71.1379 833.997 71.2629C834.229 71.388 834.432 71.553 834.593 71.7486C834.755 71.9441 834.872 72.1664 834.938 72.4027C835.004 72.6391 835.017 72.8848 834.978 73.1259C834.939 73.367 834.847 73.5987 834.708 73.8079C834.569 74.0171 834.386 74.1995 834.169 74.3449C833.825 74.5758 825.654 80 819 80Z" fill="#FAB021"/>
</g>
</svg>
