<svg width="1174" height="1123" viewBox="0 0 1174 1123" fill="none" xmlns="http://www.w3.org/2000/svg">
<g id="statistics">
<g id="statistics-shadow">
<path id="Vector" opacity="0.1" d="M1134.5 1066.77C1108.47 1087.89 1071.67 1096.34 1036.11 1101.53L1030.13 1102.37C992.996 1107.48 955.48 1110 917.849 1111.36C897.714 1112.11 877.582 1112.57 857.451 1112.95L841.675 1113.24C821.191 1113.61 800.668 1113.98 780.107 1114.33C759.977 1114.67 739.847 1114.98 719.717 1115.25C693.937 1115.59 668.159 1115.82 642.381 1115.94C622.254 1116.03 602.127 1116.02 582.002 1115.91C556.221 1115.76 530.448 1115.42 504.686 1114.88C484.55 1114.44 464.43 1113.86 444.326 1113.13C418.547 1112.17 392.785 1110.91 367.041 1109.33C349.568 1108.28 332.107 1107.05 314.659 1105.65L306.711 1105C231.816 1098.74 155.626 1088.17 90.382 1056.77L88.6228 1055.91C87.7484 1055.49 86.874 1055.06 85.9999 1054.62C74.0222 1048.72 62.5631 1041.82 51.7446 1033.99C32.5094 1019.92 16.6877 1002.85 8.45362 982.705C-4.44848 951.115 2.96607 915.855 18.4624 885.289C33.9588 854.722 57.0152 827.231 77.0138 798.507C82.8722 790.093 88.4378 781.358 93.6246 772.395C126.044 716.186 142.551 650.902 109.862 596.007C105.545 589.006 100.874 582.23 95.8673 575.705C87.8645 565.013 79.7239 554.319 74.276 542.521C61.5704 515.068 64.7167 484.392 69.7943 455.275C76.5914 416.563 88.7184 374.922 125.408 351.106C163.475 326.373 217.086 328.257 263.871 337.843C336.613 352.656 403.567 382.689 471.19 409.857C538.812 437.025 609.691 461.972 684.342 465.421C700.378 466.153 716.446 465.752 732.426 464.22V464.22C753.728 462.274 774.767 458.09 795.194 451.737C824.696 442.384 851.605 428.114 871.664 408.084C914.682 365.269 994.633 362.905 1051.95 389.711C1106.65 415.29 1141.6 468.504 1138.37 521.218C1134.72 579.897 1090.23 627.667 1049.41 676.72C1044.46 682.664 1039.57 688.629 1034.81 694.639C1032.15 697.994 1029.54 701.357 1026.98 704.727C1022.5 710.676 1018.16 716.659 1014.07 722.718C993.142 753.785 978.171 791.217 991.947 825.17C999.674 844.181 1014.67 858.791 1032.79 871.603C1073.41 900.297 1129.7 919.936 1154.67 959.742C1176.18 994.049 1167.54 1039.93 1134.5 1066.77Z" fill="#1307D8"/>
</g>
<path id="Vector_2" d="M974.542 446.202H661.846C656.479 446.196 651.333 444.1 647.537 440.373C643.741 436.647 641.606 431.594 641.6 426.324V185.195C641.605 181.334 643.169 177.633 645.949 174.902C648.73 172.172 652.5 170.636 656.433 170.632H979.699C983.7 170.636 987.535 172.199 990.364 174.976C993.192 177.753 994.783 181.519 994.788 185.447V426.324C994.782 431.594 992.647 436.647 988.851 440.373C985.056 444.1 979.91 446.196 974.542 446.202V446.202Z" fill="#F2F2F2"/>
<path id="Vector_3" d="M681.479 426.324H954.909C960.116 426.324 965.11 424.293 968.792 420.679C972.473 417.064 974.542 412.161 974.542 407.049V222.067C974.542 216.954 972.473 212.052 968.792 208.437C965.11 204.822 960.116 202.791 954.909 202.791H681.479C676.272 202.791 671.278 204.822 667.597 208.437C663.915 212.052 661.846 216.954 661.846 222.067V407.049C661.846 412.161 663.915 417.064 667.597 420.679C671.278 424.293 676.272 426.324 681.479 426.324Z" fill="white"/>
<path id="Vector_4" d="M994.506 184.058H641.316V173.938C641.324 168.65 643.468 163.582 647.277 159.844C651.086 156.106 656.25 154.004 661.636 154H974.186C979.572 154.004 984.736 156.106 988.545 159.844C992.355 163.582 994.498 168.65 994.506 173.938V184.058Z" fill="#CCCCCC"/>
<path id="Vector_5" d="M678.244 174.219C681.147 174.219 683.5 171.909 683.5 169.059C683.5 166.209 681.147 163.899 678.244 163.899C675.342 163.899 672.988 166.209 672.988 169.059C672.988 171.909 675.342 174.219 678.244 174.219Z" fill="white"/>
<path id="Vector_6" d="M698.194 174.219C701.097 174.219 703.45 171.909 703.45 169.059C703.45 166.209 701.097 163.899 698.194 163.899C695.292 163.899 692.938 166.209 692.938 169.059C692.938 171.909 695.292 174.219 698.194 174.219Z" fill="white"/>
<path id="Vector_7" d="M718.145 174.219C721.047 174.219 723.4 171.909 723.4 169.059C723.4 166.209 721.047 163.899 718.145 163.899C715.242 163.899 712.889 166.209 712.889 169.059C712.889 171.909 715.242 174.219 718.145 174.219Z" fill="white"/>
<path id="Vector_8" d="M701.6 289.478H688.059C687.324 289.477 686.62 289.19 686.101 288.681C685.582 288.171 685.29 287.479 685.289 286.758V273.463C685.29 272.742 685.582 272.051 686.101 271.541C686.62 271.031 687.324 270.744 688.059 270.744H701.6C702.335 270.744 703.039 271.031 703.558 271.541C704.077 272.051 704.369 272.742 704.37 273.463V286.758C704.369 287.479 704.077 288.171 703.558 288.681C703.039 289.19 702.335 289.477 701.6 289.478V289.478Z" fill="#6C63FF"/>
<path id="Vector_9" d="M701.6 323.925H688.059C687.324 323.924 686.62 323.637 686.101 323.127C685.582 322.617 685.29 321.926 685.289 321.205V307.91C685.29 307.189 685.582 306.498 686.101 305.988C686.62 305.478 687.324 305.191 688.059 305.19H701.6C702.335 305.191 703.039 305.478 703.558 305.988C704.077 306.498 704.369 307.189 704.37 307.91V321.205C704.369 321.926 704.077 322.617 703.558 323.127C703.039 323.637 702.335 323.924 701.6 323.925Z" fill="#3F3D56"/>
<path id="Vector_10" d="M701.6 358.372H688.059C687.324 358.371 686.62 358.084 686.101 357.574C685.582 357.064 685.29 356.373 685.289 355.652V342.357C685.29 341.636 685.582 340.945 686.101 340.435C686.62 339.925 687.324 339.638 688.059 339.637H701.6C702.335 339.638 703.039 339.925 703.558 340.435C704.077 340.945 704.369 341.636 704.37 342.357V355.652C704.369 356.373 704.077 357.064 703.558 357.574C703.039 358.084 702.335 358.371 701.6 358.372V358.372Z" fill="#CCCCCC"/>
<path id="Vector_11" d="M790.236 282.83H724.99C724.257 282.829 723.554 282.542 723.035 282.032C722.517 281.522 722.226 280.831 722.226 280.111C722.226 279.39 722.517 278.7 723.035 278.19C723.554 277.68 724.257 277.393 724.99 277.391H790.236C790.6 277.39 790.961 277.46 791.298 277.597C791.635 277.733 791.941 277.933 792.198 278.186C792.456 278.438 792.661 278.738 792.8 279.069C792.94 279.399 793.012 279.753 793.012 280.111C793.012 280.468 792.94 280.822 792.8 281.153C792.661 281.483 792.456 281.783 792.198 282.036C791.941 282.288 791.635 282.489 791.298 282.625C790.961 282.761 790.6 282.831 790.236 282.83V282.83Z" fill="#CCCCCC"/>
<path id="Vector_12" d="M790.236 317.277H724.99C724.257 317.276 723.554 316.989 723.035 316.479C722.517 315.969 722.226 315.278 722.226 314.558C722.226 313.837 722.517 313.147 723.035 312.637C723.554 312.127 724.257 311.84 724.99 311.838H790.236C790.971 311.838 791.675 312.125 792.195 312.635C792.714 313.145 793.006 313.836 793.006 314.558C793.006 315.279 792.714 315.971 792.195 316.481C791.675 316.991 790.971 317.277 790.236 317.277Z" fill="#CCCCCC"/>
<path id="Vector_13" d="M790.236 351.724H724.99C724.257 351.722 723.554 351.435 723.035 350.925C722.517 350.416 722.226 349.725 722.226 349.005C722.226 348.284 722.517 347.593 723.035 347.084C723.554 346.574 724.257 346.287 724.99 346.285H790.236C790.6 346.284 790.961 346.354 791.298 346.49C791.635 346.627 791.941 346.827 792.198 347.08C792.456 347.332 792.661 347.632 792.8 347.962C792.94 348.293 793.012 348.647 793.012 349.005C793.012 349.362 792.94 349.716 792.8 350.047C792.661 350.377 792.456 350.677 792.198 350.929C791.941 351.182 791.635 351.382 791.298 351.519C790.961 351.655 790.6 351.725 790.236 351.724V351.724Z" fill="#CCCCCC"/>
<path id="Vector_14" d="M950.99 315.421C951.06 314.278 951.099 313.127 951.099 311.967C951.099 296.848 944.982 282.349 934.094 271.658C923.206 260.968 908.438 254.962 893.039 254.962V315.421H950.99Z" fill="#6C63FF"/>
<path id="Vector_15" d="M888.641 320.604V260.144C877.307 260.144 866.221 263.4 856.75 269.511C847.279 275.623 839.837 284.322 835.341 294.537C830.845 304.751 829.493 316.034 831.45 326.994C833.408 337.954 838.59 348.112 846.357 356.216C854.124 364.319 864.137 370.013 875.161 372.596C886.185 375.179 897.737 374.538 908.395 370.752C919.052 366.965 928.347 360.2 935.135 351.288C941.922 342.377 945.905 331.711 946.592 320.604H888.641Z" fill="#3F3D56"/>
<path id="Vector_16" d="M783.272 651.459C783.681 652.005 784.046 652.582 784.364 653.184L845.854 659.972L854.797 648.109L874.797 659.02L857.192 687.837L781.858 668.425C779.941 670.235 777.508 671.428 774.883 671.847C772.258 672.266 769.566 671.891 767.164 670.771C764.762 669.651 762.764 667.839 761.436 665.577C760.108 663.315 759.513 660.71 759.73 658.108C759.947 655.505 760.965 653.03 762.65 651.01C764.335 648.99 766.606 647.521 769.162 646.8C771.717 646.078 774.436 646.137 776.957 646.97C779.477 647.802 781.68 649.368 783.272 651.459V651.459Z" fill="#FFB8B8"/>
<path id="Vector_17" d="M469.516 635.873C467.961 636.77 466.224 637.322 464.428 637.489C462.632 637.657 460.821 637.435 459.122 636.841C457.423 636.246 455.877 635.293 454.593 634.049C453.31 632.805 452.32 631.299 451.693 629.638L407.855 630.536L420 611.607L459.767 613.657C462.679 612.808 465.806 613.037 468.557 614.301C471.307 615.565 473.49 617.775 474.692 620.514C475.894 623.252 476.03 626.328 475.076 629.159C474.122 631.99 472.144 634.379 469.516 635.873V635.873Z" fill="#FFB8B8"/>
<path id="Vector_18" d="M450.249 630.454C449.9 631.595 449.18 632.592 448.198 633.292C447.216 633.991 446.027 634.355 444.815 634.326L364.583 632.325L291.935 611.206C289.935 610.625 288.074 609.66 286.458 608.366C284.843 607.073 283.505 605.477 282.523 603.671C281.541 601.865 280.935 599.886 280.739 597.848C280.544 595.81 280.762 593.754 281.383 591.8C282.004 589.846 283.014 588.033 284.355 586.465C285.696 584.898 287.341 583.608 289.194 582.67C291.048 581.733 293.072 581.166 295.15 581.004C297.229 580.841 299.319 581.086 301.3 581.724L366.935 602.853L445.712 610.317C447.091 610.454 448.369 611.093 449.293 612.109C450.216 613.125 450.719 614.443 450.702 615.805L450.474 628.997C450.467 629.491 450.391 629.981 450.249 630.454V630.454Z" fill="#3F3D56"/>
<path id="Vector_19" d="M333.896 969.114L348.939 969.113L356.096 912.144L333.894 912.145L333.896 969.114Z" fill="#FFB8B8"/>
<path id="Vector_20" d="M330.059 964.292L359.684 964.291H359.685C362.165 964.29 364.62 964.77 366.91 965.701C369.201 966.633 371.282 967.998 373.035 969.719C374.788 971.441 376.179 973.484 377.128 975.733C378.077 977.982 378.565 980.392 378.565 982.827V983.429L330.06 983.431L330.059 964.292Z" fill="#2F2E41"/>
<path id="Vector_21" d="M289.723 969.114L304.765 969.113L311.923 912.144L289.721 912.145L289.723 969.114Z" fill="#FFB8B8"/>
<path id="Vector_22" d="M285.886 964.292L315.511 964.291H315.512C317.991 964.29 320.446 964.77 322.737 965.701C325.028 966.633 327.109 967.998 328.862 969.719C330.615 971.441 332.006 973.484 332.955 975.733C333.903 977.982 334.392 980.392 334.392 982.827V983.429L285.886 983.431L285.886 964.292Z" fill="#2F2E41"/>
<path id="Vector_23" d="M279.627 738.883L283.219 948.135C283.231 948.798 283.381 949.451 283.661 950.054C283.941 950.657 284.345 951.197 284.848 951.639C285.35 952.082 285.94 952.418 286.58 952.627C287.221 952.836 287.899 952.913 288.571 952.853L306.174 951.282C307.329 951.179 308.409 950.678 309.223 949.867C310.038 949.057 310.534 947.99 310.623 946.855L320.929 816.329C320.953 816.023 321.096 815.737 321.328 815.53C321.56 815.324 321.863 815.212 322.177 815.218C322.49 815.224 322.789 815.348 323.012 815.563C323.236 815.778 323.367 816.07 323.379 816.377L328.53 949.891C328.578 951.136 329.115 952.315 330.03 953.18C330.944 954.044 332.165 954.527 333.434 954.527H352.313C353.563 954.527 354.766 954.059 355.676 953.218C356.586 952.377 357.136 951.227 357.212 950.002L370.428 737.678L291.897 718.402L279.627 738.883Z" fill="#2F2E41"/>
<path id="Vector_24" d="M336.588 542.397C353.232 542.397 366.725 529.15 366.725 512.808C366.725 496.466 353.232 483.219 336.588 483.219C319.943 483.219 306.45 496.466 306.45 512.808C306.45 529.15 319.943 542.397 336.588 542.397Z" fill="#FFB8B8"/>
<path id="Vector_25" d="M369.272 746.64C369.243 746.64 369.214 746.639 369.185 746.639L298.715 745.574C297.36 745.554 296.061 745.046 295.063 744.145C294.066 743.245 293.44 742.017 293.306 740.693L292.508 732.859C292.493 732.71 292.422 732.573 292.309 732.472C292.196 732.372 292.05 732.317 291.897 732.317C291.745 732.317 291.599 732.372 291.486 732.472C291.373 732.573 291.302 732.71 291.287 732.859L290.463 740.951C290.335 742.218 289.757 743.4 288.829 744.289C287.902 745.179 286.685 745.719 285.392 745.816L280.412 746.192C279.534 746.259 278.653 746.118 277.842 745.782C277.031 745.446 276.313 744.925 275.749 744.261C275.185 743.598 274.791 742.811 274.599 741.968C274.407 741.124 274.424 740.248 274.647 739.412L278.935 723.36C287.809 689.999 288.522 655.052 281.019 621.368L278.888 611.852C277.281 604.742 278.017 597.316 280.987 590.644C283.958 583.971 289.01 578.397 295.416 574.727L309.257 566.761L315.537 557.512C316.753 555.727 318.388 554.256 320.306 553.223C322.224 552.191 324.367 551.628 326.553 551.582C335.313 551.393 350.341 552.969 353.164 565.545C360.161 567.892 366.22 572.357 370.471 578.296C374.722 584.236 376.946 591.346 376.824 598.605L374.791 741.294C374.77 742.718 374.18 744.077 373.147 745.078C372.115 746.078 370.723 746.639 369.272 746.64V746.64Z" fill="#3F3D56"/>
<path id="Vector_26" d="M334.23 529.864C334.107 534.047 331.149 536.466 327.518 538.657C323.886 540.848 319.642 541.798 315.483 542.715C314.924 543.006 314.299 543.151 313.667 543.136C313.035 543.12 312.417 542.945 311.874 542.628C311.33 542.31 310.88 541.86 310.565 541.321C310.251 540.783 310.083 540.174 310.078 539.553L306.264 525.309C304.914 520.759 303.932 516.112 303.327 511.41C302.409 502.364 304.592 492.632 311.023 486.091C317.455 479.551 328.608 477.227 336.315 482.267C345.46 470.798 387.265 496.136 376.953 504.112C375.118 505.53 372.314 503.735 369.985 503.561C367.657 503.387 365.047 503.789 363.568 505.564C361.635 507.882 362.477 511.335 361.681 514.227C361.351 515.244 360.82 516.187 360.117 517.002C359.415 517.817 358.555 518.487 357.587 518.974C356.619 519.461 355.563 519.756 354.479 519.84C353.395 519.924 352.305 519.797 351.271 519.465C349.346 518.534 347.534 517.39 345.872 516.057C344.086 514.889 341.829 514.026 339.818 514.763C337.168 515.734 336.227 518.92 335.987 521.687C335.583 524.447 334.996 527.179 334.23 529.864V529.864Z" fill="#2F2E41"/>
<path id="Vector_27" opacity="0.2" d="M341.268 609.166L346.177 668.197L371.944 729.638L333.906 669.402L341.268 609.166Z" fill="black"/>
<path id="Vector_28" d="M658.273 932.425L389.343 775.779C384.73 773.085 381.393 768.704 380.066 763.598C378.738 758.492 379.527 753.077 382.261 748.541L507.572 541.161C509.582 537.843 512.851 535.443 516.661 534.488C520.471 533.533 524.512 534.101 527.896 536.067L805.917 698.008C809.355 700.016 811.842 703.281 812.832 707.087C813.821 710.892 813.233 714.928 811.195 718.308L686.015 925.472C683.271 930.001 678.809 933.277 673.608 934.58C668.408 935.884 662.892 935.109 658.273 932.425Z" fill="#F2F2F2"/>
<path id="Vector_29" d="M416.558 768.519L651.718 905.494C656.196 908.103 661.546 908.858 666.591 907.593C671.637 906.329 675.963 903.148 678.62 898.752L774.752 739.66C777.409 735.264 778.178 730.011 776.89 725.058C775.602 720.104 772.363 715.856 767.885 713.248L532.724 576.272C528.246 573.664 522.896 572.908 517.851 574.173C512.806 575.437 508.479 578.618 505.822 583.015L409.69 742.106C407.034 746.503 406.265 751.755 407.553 756.709C408.841 761.662 412.08 765.91 416.558 768.519V768.519Z" fill="white"/>
<path id="Vector_30" d="M811.675 716.973L507.918 540.041L513.177 531.337C515.932 526.794 520.41 523.508 525.628 522.202C530.847 520.896 536.38 521.675 541.014 524.369L809.819 680.942C814.449 683.644 817.798 688.038 819.132 693.161C820.465 698.284 819.675 703.717 816.934 708.269L811.675 716.973Z" fill="#CCCCCC"/>
<path id="Vector_31" d="M547.472 550.801C550.375 550.801 552.728 548.491 552.728 545.641C552.728 542.791 550.375 540.48 547.472 540.48C544.57 540.48 542.216 542.791 542.216 545.641C542.216 548.491 544.57 550.801 547.472 550.801Z" fill="white"/>
<path id="Vector_32" d="M564.63 560.795C567.533 560.795 569.886 558.485 569.886 555.635C569.886 552.785 567.533 550.474 564.63 550.474C561.727 550.474 559.374 552.785 559.374 555.635C559.374 558.485 561.727 560.795 564.63 560.795Z" fill="white"/>
<path id="Vector_33" d="M581.788 570.789C584.691 570.789 587.044 568.479 587.044 565.629C587.044 562.779 584.691 560.468 581.788 560.468C578.885 560.468 576.532 562.779 576.532 565.629C576.532 568.479 578.885 570.789 581.788 570.789Z" fill="white"/>
<path id="Vector_34" d="M744.089 747.175L743.747 747.741L747.204 749.755L747.546 749.189L744.089 747.175Z" fill="#E6E6E6"/>
<path id="Vector_35" d="M736.762 743.673L729.778 739.604L730.12 739.039L737.104 743.107L736.762 743.673ZM722.793 735.536L715.809 731.468L716.151 730.902L723.135 734.97L722.793 735.536ZM708.824 727.399L701.84 723.331L702.182 722.765L709.166 726.834L708.824 727.399ZM694.855 719.263L687.871 715.194L688.212 714.629L695.197 718.697L694.855 719.263ZM680.886 711.126L673.902 707.058L674.243 706.492L681.228 710.56L680.886 711.126ZM666.917 702.989L659.932 698.921L660.274 698.355L667.259 702.424L666.917 702.989ZM652.948 694.853L645.963 690.784L646.305 690.219L653.29 694.287L652.948 694.853ZM638.979 686.716L631.994 682.648L632.336 682.082L639.321 686.15L638.979 686.716ZM625.01 678.579L618.025 674.511L618.367 673.945L625.352 678.014L625.01 678.579ZM611.041 670.443L604.056 666.374L604.398 665.809L611.383 669.877L611.041 670.443ZM597.072 662.306L590.087 658.238L590.429 657.672L597.413 661.74L597.072 662.306ZM583.102 654.169L576.118 650.101L576.46 649.535L583.444 653.604L583.102 654.169ZM569.133 646.033L562.149 641.964L562.491 641.399L569.475 645.467L569.133 646.033ZM555.164 637.896L548.18 633.828L548.522 633.262L555.506 637.33L555.164 637.896ZM541.195 629.759L534.211 625.691L534.553 625.125L541.537 629.194L541.195 629.759ZM527.226 621.623L520.242 617.554L520.583 616.989L527.568 621.057L527.226 621.623Z" fill="#E6E6E6"/>
<path id="Vector_36" d="M510.142 610.906L509.8 611.472L513.257 613.486L513.599 612.92L510.142 610.906Z" fill="#E6E6E6"/>
<path id="Vector_37" d="M598.78 733.669L598.438 734.235L601.895 736.248L602.237 735.683L598.78 733.669Z" fill="#E6E6E6"/>
<path id="Vector_38" d="M591.557 730.227L584.676 726.219L585.018 725.653L591.899 729.661L591.557 730.227ZM577.796 722.211L570.915 718.203L571.257 717.637L578.137 721.645L577.796 722.211ZM564.034 714.195L557.153 710.187L557.495 709.621L564.376 713.629L564.034 714.195ZM550.272 706.179L543.392 702.171L543.734 701.606L550.614 705.613L550.272 706.179ZM536.511 698.163L529.63 694.155L529.972 693.59L536.853 697.598L536.511 698.163ZM522.749 690.147L515.868 686.14L516.21 685.574L523.091 689.582L522.749 690.147ZM508.988 682.132L502.107 678.124L502.449 677.558L509.329 681.566L508.988 682.132ZM495.226 674.116L488.345 670.108L488.687 669.542L495.568 673.55L495.226 674.116Z" fill="#E6E6E6"/>
<path id="Vector_39" d="M478.349 663.521L478.007 664.086L481.465 666.1L481.806 665.534L478.349 663.521Z" fill="#E6E6E6"/>
<path id="Vector_40" d="M516.32 719.292L515.978 719.858L519.436 721.872L519.777 721.306L516.32 719.292Z" fill="#E6E6E6"/>
<path id="Vector_41" d="M508.899 715.734L501.82 711.611L502.162 711.045L509.241 715.169L508.899 715.734ZM494.74 707.487L487.661 703.364L488.003 702.798L495.082 706.921L494.74 707.487ZM480.582 699.24L473.502 695.116L473.844 694.551L480.923 698.674L480.582 699.24Z" fill="#E6E6E6"/>
<path id="Vector_42" d="M463.307 688.413L462.966 688.979L466.423 690.993L466.765 690.427L463.307 688.413Z" fill="#E6E6E6"/>
<path id="Vector_43" d="M490.651 761.772L490.309 762.338L493.767 764.352L494.109 763.786L490.651 761.772Z" fill="#E6E6E6"/>
<path id="Vector_44" d="M483.23 758.214L476.151 754.091L476.493 753.525L483.572 757.649L483.23 758.214ZM469.071 749.967L461.992 745.844L462.334 745.278L469.413 749.402L469.071 749.967ZM454.913 741.72L447.833 737.597L448.175 737.031L455.255 741.155L454.913 741.72Z" fill="#E6E6E6"/>
<path id="Vector_45" d="M437.639 730.894L437.297 731.459L440.754 733.473L441.096 732.907L437.639 730.894Z" fill="#E6E6E6"/>
<path id="Vector_46" d="M456.527 743.247L655.809 859.325C660.638 862.13 666.402 862.94 671.838 861.578C677.275 860.215 681.938 856.791 684.806 852.057L743.033 755.696L742.632 755.478L610.523 788.585L600.059 748.355C599.868 747.612 599.504 746.921 598.995 746.339C598.487 745.756 597.848 745.297 597.129 744.998C596.029 744.563 594.814 744.496 593.671 744.807L524.441 762.154L516.788 732.741C516.623 732.107 516.332 731.51 515.933 730.985C515.533 730.461 515.032 730.019 514.458 729.684C513.884 729.35 513.248 729.13 512.588 729.037C511.927 728.944 511.255 728.979 510.608 729.142C510.14 729.263 465.091 740.983 456.527 743.247Z" fill="#6C63FF"/>
<path id="Vector_47" d="M455.336 743.318L455.17 742.68L510.57 728.795C512.033 728.43 513.584 728.649 514.883 729.406C516.182 730.162 517.121 731.394 517.496 732.83L524.994 761.664L593.84 744.409C595.304 744.044 596.855 744.263 598.153 745.02C599.452 745.776 600.392 747.007 600.767 748.443L611.077 788.095L743.874 754.811L744.039 755.448L610.593 788.895L600.118 748.606C599.955 747.978 599.667 747.388 599.272 746.87C598.876 746.351 598.38 745.914 597.813 745.583C597.245 745.253 596.617 745.035 595.964 744.943C595.311 744.851 594.645 744.886 594.006 745.046L524.51 762.465L516.847 732.992C516.516 731.725 515.687 730.639 514.541 729.972C513.395 729.304 512.027 729.11 510.736 729.432L455.336 743.318Z" fill="#3F3D56"/>
<path id="Vector_48" d="M519.606 726.193C522.197 726.193 524.296 724.132 524.296 721.589C524.296 719.046 522.197 716.984 519.606 716.984C517.016 716.984 514.917 719.046 514.917 721.589C514.917 724.132 517.016 726.193 519.606 726.193Z" fill="#3F3D56"/>
<path id="Vector_49" d="M602.066 740.57C604.657 740.57 606.756 738.509 606.756 735.966C606.756 733.422 604.657 731.361 602.066 731.361C599.476 731.361 597.376 733.422 597.376 735.966C597.376 738.509 599.476 740.57 602.066 740.57Z" fill="#3F3D56"/>
<path id="Vector_50" d="M745.727 751.66C748.317 751.66 750.417 749.598 750.417 747.055C750.417 744.512 748.317 742.45 745.727 742.45C743.136 742.45 741.037 744.512 741.037 747.055C741.037 749.598 743.136 751.66 745.727 751.66Z" fill="#3F3D56"/>
<path id="Vector_51" d="M377.97 752.518C376.563 751.409 375.421 750.011 374.625 748.422C373.828 746.833 373.396 745.092 373.359 743.321C373.321 741.55 373.68 739.793 374.409 738.174C375.139 736.554 376.221 735.111 377.58 733.946L361.164 694.026L383.499 698.454L395.663 735.684C397.505 738.055 398.397 741.007 398.17 743.98C397.943 746.954 396.613 749.742 394.432 751.817C392.251 753.892 389.371 755.109 386.336 755.239C383.302 755.368 380.325 754.4 377.97 752.518V752.518Z" fill="#FFB8B8"/>
<path id="Vector_52" d="M377.697 735.222C376.487 735.307 375.282 735 374.268 734.347C373.253 733.694 372.485 732.732 372.082 731.608L345.508 657.255L339.829 583.077C339.672 581.036 339.93 578.984 340.588 577.042C341.247 575.099 342.292 573.305 343.662 571.763C345.033 570.22 346.703 568.961 348.574 568.058C350.445 567.155 352.48 566.626 354.561 566.502C356.643 566.378 358.728 566.662 360.696 567.336C362.665 568.011 364.477 569.063 366.028 570.431C367.578 571.8 368.837 573.457 369.729 575.307C370.621 577.157 371.13 579.163 371.226 581.208L374.406 648.952L395.262 723.909C395.621 725.224 395.466 726.624 394.826 727.832C394.187 729.041 393.11 729.97 391.808 730.438L379.165 734.912C378.692 735.08 378.199 735.184 377.697 735.222V735.222Z" fill="#3F3D56"/>
<path id="Vector_53" d="M870.427 669.34C869.932 669.127 869.47 668.844 869.057 668.501L844.344 648.061C843.75 647.57 843.266 646.963 842.923 646.279C842.58 645.595 842.385 644.848 842.351 644.086C842.317 643.324 842.445 642.564 842.726 641.853C843.006 641.142 843.434 640.496 843.983 639.956L866.409 617.846C867.351 616.91 868.604 616.337 869.94 616.233C871.275 616.129 872.605 616.499 873.686 617.277L890.645 629.369C891.704 630.124 892.46 631.218 892.785 632.462C893.109 633.707 892.981 635.024 892.422 636.185L877.75 666.642C877.126 667.938 876.012 668.944 874.645 669.448C873.278 669.951 871.765 669.913 870.427 669.34L870.427 669.34Z" fill="#6C63FF"/>
<path id="Vector_54" d="M966.819 958.427L952.059 962.37L929.544 908.349L951.329 902.531L966.819 958.427Z" fill="#FFB8B8"/>
<path id="Vector_55" d="M940.072 961.125L968.835 953.442L973.711 971.039L927.322 983.431L927.241 983.139C925.969 978.549 926.607 973.652 929.013 969.523C931.419 965.395 935.397 962.374 940.072 961.125Z" fill="#2F2E41"/>
<path id="Vector_56" d="M840.637 969.485L825.341 969.484L818.063 911.555L840.641 911.556L840.637 969.485Z" fill="#FFB8B8"/>
<path id="Vector_57" d="M814.106 965.193H843.915V983.43H795.84V983.127C795.84 978.371 797.764 973.809 801.19 970.446C804.616 967.082 809.262 965.193 814.106 965.193V965.193Z" fill="#2F2E41"/>
<path id="Vector_58" d="M863.681 587.01C880.606 587.01 894.326 573.539 894.326 556.922C894.326 540.305 880.606 526.834 863.681 526.834C846.756 526.834 833.036 540.305 833.036 556.922C833.036 573.539 846.756 587.01 863.681 587.01Z" fill="#FFB8B8"/>
<path id="Vector_59" d="M839.701 928.182H818.797C817.368 928.179 815.994 927.644 814.952 926.683C813.91 925.723 813.28 924.409 813.188 923.009C806.959 825.79 810.603 756.052 824.654 703.542C824.715 703.312 824.791 703.087 824.882 702.866L826.001 700.118C826.415 699.093 827.133 698.214 828.063 697.596C828.993 696.978 830.091 696.649 831.214 696.653H874.201C875.011 696.652 875.811 696.824 876.547 697.156C877.283 697.488 877.937 697.973 878.464 698.577L884.302 705.266C884.416 705.396 884.523 705.529 884.626 705.669C910.954 741.716 934.548 812.19 961.874 906.914C962.278 908.291 962.118 909.767 961.428 911.03C960.739 912.292 959.574 913.24 958.183 913.672L935.718 920.73C934.428 921.129 933.036 921.06 931.794 920.536C930.551 920.011 929.542 919.067 928.949 917.873L870.653 799.16C870.245 798.33 869.576 797.651 868.745 797.224C867.914 796.797 866.964 796.644 866.038 796.787C865.111 796.931 864.256 797.364 863.6 798.022C862.943 798.68 862.52 799.528 862.392 800.441L845.264 923.416C845.076 924.734 844.41 925.942 843.388 926.818C842.366 927.693 841.057 928.178 839.701 928.182V928.182Z" fill="#2F2E41"/>
<path id="Vector_60" d="M881.946 705.755C881.887 705.755 881.829 705.754 881.769 705.753L829.555 704.134C828.212 704.097 826.928 703.588 825.937 702.699C824.945 701.809 824.312 700.6 824.154 699.29C817.535 646.686 835.688 632.594 843.8 628.977C844.478 628.677 845.065 628.21 845.505 627.621C845.945 627.032 846.222 626.342 846.31 625.617L847.012 620.103C847.132 619.129 847.515 618.205 848.122 617.426C860.84 601.249 878.208 596.069 887.428 594.422C888.176 594.29 888.943 594.308 889.683 594.477C890.424 594.645 891.121 594.959 891.734 595.4C892.347 595.841 892.862 596.4 893.248 597.042C893.634 597.685 893.883 598.398 893.98 599.138L895.032 607.055C895.139 607.81 895.446 608.524 895.922 609.127C922.447 643.173 892.897 693.442 886.703 703.172C886.197 703.963 885.496 704.614 884.664 705.066C883.832 705.517 882.897 705.755 881.946 705.755V705.755Z" fill="#6C63FF"/>
<path id="Vector_61" d="M897.398 538.209C895.122 531.435 893.442 524.481 892.376 517.425C892.041 513.317 893.113 508.896 896.16 506.062C901.863 500.757 911.552 503.284 917.516 508.304C926.135 515.56 930.433 526.71 932.058 537.742C933.682 548.774 932.968 559.993 933.359 571.133C933.75 582.273 935.373 593.728 941.157 603.319C946.942 612.911 957.676 620.273 968.999 619.457C973.57 619.214 977.909 617.409 981.265 614.353C982.913 612.814 984.16 610.91 984.903 608.8C985.647 606.691 985.864 604.437 985.537 602.227C991.324 612.402 988.39 626.191 979.758 634.189C971.126 642.188 957.848 644.449 946.5 641.034C935.152 637.619 925.812 629.056 920.233 618.77C914.654 608.485 912.61 596.602 912.906 584.953C913.134 576.007 914.683 566.987 913.143 558.167C911.603 549.347 905.981 540.391 897.115 538.314L897.398 538.209Z" fill="#2F2E41"/>
<path id="Vector_62" d="M857.584 549.806C856.073 554.763 850.291 557.82 845.09 556.982C842.501 556.453 840.106 555.246 838.159 553.489C836.212 551.732 834.786 549.49 834.031 547.001C832.603 541.959 833.188 536.571 835.667 531.938C837.033 529.161 838.944 526.675 841.289 524.624C843.635 522.573 846.37 520.996 849.337 519.983C852.321 519.012 855.499 518.76 858.603 519.247C861.707 519.734 864.647 520.946 867.174 522.781C867.443 521.668 868.01 520.644 868.815 519.817C869.621 518.99 870.637 518.388 871.758 518.075C874.016 517.477 876.399 517.512 878.637 518.174C885.088 519.979 890.678 523.972 894.413 529.442C898.101 534.896 900.54 541.07 901.563 547.538C903.323 557.238 902.674 567.838 897.125 576.048C891.577 584.258 880.224 589.105 871.014 585.191C870.44 582.309 871.801 579.406 873.375 576.909C874.948 574.411 876.814 571.978 877.418 569.102C878.023 566.225 876.864 562.707 874.03 561.766C871.612 560.964 869.035 562.264 866.488 562.421C865.041 562.51 863.596 562.224 862.298 561.592C861 560.96 859.893 560.003 859.09 558.819C858.287 557.634 857.815 556.263 857.722 554.844C857.629 553.424 857.918 552.004 858.56 550.729L857.584 549.806Z" fill="#2F2E41"/>
<path id="Vector_63" d="M779.917 673.756C780.424 674.216 780.893 674.715 781.32 675.248L843.012 670.534L849.517 657.228L871.252 664.242L859.496 695.8L781.785 690.68C780.25 692.811 778.09 694.434 775.593 695.331C773.095 696.228 770.379 696.358 767.805 695.702C765.231 695.047 762.921 693.638 761.183 691.662C759.444 689.686 758.359 687.238 758.073 684.642C757.786 682.047 758.311 679.427 759.578 677.131C760.845 674.836 762.794 672.973 765.165 671.791C767.536 670.61 770.218 670.165 772.853 670.516C775.488 670.867 777.952 671.997 779.917 673.756V673.756Z" fill="#FFB8B8"/>
<path id="Vector_64" d="M870.918 685.262C870.398 685.117 869.901 684.898 869.445 684.614L842.124 667.671C841.468 667.264 840.904 666.728 840.469 666.096C840.035 665.464 839.738 664.75 839.599 664C839.46 663.25 839.48 662.479 839.66 661.737C839.839 660.995 840.174 660.298 840.642 659.69L859.79 634.786C860.593 633.732 861.755 632.997 863.064 632.715C864.373 632.433 865.741 632.622 866.92 633.248L885.399 642.958C886.553 643.564 887.454 644.547 887.948 645.737C888.443 646.926 888.498 648.248 888.106 649.473L877.799 681.609C877.36 682.976 876.396 684.122 875.112 684.804C873.828 685.486 872.323 685.65 870.918 685.262V685.262Z" fill="#6C63FF"/>
<path id="Vector_65" d="M147.5 324L277.5 179L407.5 252L537.5 28.0001L667.5 135" stroke="#3F3D56" stroke-width="7" stroke-miterlimit="10" stroke-linecap="round"/>
<path id="Vector_66" d="M147 352C162.464 352 175 339.464 175 324C175 308.536 162.464 296 147 296C131.536 296 119 308.536 119 324C119 339.464 131.536 352 147 352Z" fill="#6C63FF"/>
<path id="Vector_67" d="M277 207C292.464 207 305 194.464 305 179C305 163.536 292.464 151 277 151C261.536 151 249 163.536 249 179C249 194.464 261.536 207 277 207Z" fill="#6C63FF"/>
<path id="Vector_68" d="M407 280C422.464 280 435 267.464 435 252C435 236.536 422.464 224 407 224C391.536 224 379 236.536 379 252C379 267.464 391.536 280 407 280Z" fill="#6C63FF"/>
<path id="Vector_69" d="M537 56C552.464 56 565 43.464 565 28C565 12.536 552.464 0 537 0C521.536 0 509 12.536 509 28C509 43.464 521.536 56 537 56Z" fill="#6C63FF"/>
<path id="Vector_70" d="M144.01 985.494C175.496 985.494 201.02 980.587 201.02 974.534C201.02 968.481 175.496 963.574 144.01 963.574C112.524 963.574 87 968.481 87 974.534C87 980.587 112.524 985.494 144.01 985.494Z" fill="#6C63FF"/>
<path id="Vector_71" d="M143.06 978.564C146.727 978.564 149.7 974.674 149.7 969.874C149.7 965.075 146.727 961.184 143.06 961.184C139.393 961.184 136.42 965.075 136.42 969.874C136.42 974.674 139.393 978.564 143.06 978.564Z" fill="#3F3D56"/>
<path id="Vector_72" d="M143.06 967.944C146.727 967.944 149.7 964.054 149.7 959.254C149.7 954.455 146.727 950.564 143.06 950.564C139.393 950.564 136.42 954.455 136.42 959.254C136.42 964.054 139.393 967.944 143.06 967.944Z" fill="#3F3D56"/>
<path id="Vector_73" d="M143.06 957.324C146.727 957.324 149.7 953.434 149.7 948.634C149.7 943.835 146.727 939.944 143.06 939.944C139.393 939.944 136.42 943.835 136.42 948.634C136.42 953.434 139.393 957.324 143.06 957.324Z" fill="#3F3D56"/>
<path id="Vector_74" d="M143.06 946.704C146.727 946.704 149.7 942.814 149.7 938.014C149.7 933.215 146.727 929.324 143.06 929.324C139.393 929.324 136.42 933.215 136.42 938.014C136.42 942.814 139.393 946.704 143.06 946.704Z" fill="#3F3D56"/>
<path id="Vector_75" d="M143.06 936.084C146.727 936.084 149.7 932.194 149.7 927.394C149.7 922.595 146.727 918.704 143.06 918.704C139.393 918.704 136.42 922.595 136.42 927.394C136.42 932.194 139.393 936.084 143.06 936.084Z" fill="#3F3D56"/>
<path id="Vector_76" d="M143.06 925.464C146.727 925.464 149.7 921.574 149.7 916.774C149.7 911.975 146.727 908.084 143.06 908.084C139.393 908.084 136.42 911.975 136.42 916.774C136.42 921.574 139.393 925.464 143.06 925.464Z" fill="#3F3D56"/>
<path id="Vector_77" d="M143.06 914.844C146.727 914.844 149.7 910.954 149.7 906.154C149.7 901.355 146.727 897.464 143.06 897.464C139.393 897.464 136.42 901.355 136.42 906.154C136.42 910.954 139.393 914.844 143.06 914.844Z" fill="#3F3D56"/>
<path id="Vector_78" d="M167.91 833.474C168.815 832.318 169.64 831.102 170.38 829.834L152.94 826.964L171.8 827.114C173.609 823.176 174.596 818.91 174.701 814.577C174.805 810.244 174.026 805.936 172.41 801.914L147.1 815.044L170.44 797.854C168.252 794.078 165.309 790.793 161.797 788.204C158.284 785.614 154.275 783.775 150.021 782.801C145.767 781.828 141.358 781.74 137.068 782.544C132.779 783.348 128.701 785.027 125.088 787.475C121.475 789.923 118.405 793.089 116.068 796.775C113.732 800.461 112.179 804.589 111.506 808.901C110.834 813.213 111.057 817.617 112.16 821.84C113.263 826.062 115.224 830.012 117.92 833.444C116.51 835.243 115.296 837.187 114.3 839.244L136.94 851.004L112.8 842.904C111.104 847.915 110.684 853.269 111.578 858.483C112.472 863.696 114.652 868.605 117.92 872.764C114.232 877.455 111.939 883.089 111.302 889.022C110.665 894.955 111.71 900.948 114.318 906.315C116.925 911.682 120.99 916.207 126.048 919.373C131.106 922.538 136.953 924.217 142.92 924.217C148.887 924.217 154.734 922.538 159.792 919.373C164.85 916.207 168.915 911.682 171.523 906.315C174.13 900.948 175.175 894.955 174.538 889.022C173.901 883.089 171.608 877.455 167.92 872.764C172.325 867.158 174.72 860.234 174.72 853.104C174.72 845.974 172.325 839.051 167.92 833.444L167.91 833.474Z" fill="#6C63FF"/>
<path id="Vector_79" opacity="0.1" d="M111.12 853.134C111.108 860.266 113.504 867.194 117.92 872.794C114.232 877.485 111.939 883.119 111.302 889.052C110.665 894.985 111.71 900.978 114.318 906.345C116.925 911.712 120.99 916.237 126.048 919.403C131.106 922.568 136.953 924.247 142.92 924.247C148.887 924.247 154.734 922.568 159.792 919.403C164.85 916.237 168.915 911.712 171.523 906.345C174.13 900.978 175.175 894.985 174.538 889.052C173.901 883.119 171.608 877.485 167.92 872.794C172.17 867.384 111.12 849.564 111.12 853.134Z" fill="black"/>
</g>
</svg>
