<svg width="1174" height="794" viewBox="0 0 1174 794" fill="none" xmlns="http://www.w3.org/2000/svg">
<g id="statistics-shadow">
<path id="Vector" opacity="0.1" d="M1134.5 737.775C1108.47 758.892 1071.67 767.335 1036.11 772.527L1030.13 773.37C992.996 778.481 955.48 781 917.849 782.363C897.714 783.108 877.582 783.568 857.451 783.953L841.675 784.24C821.191 784.614 800.668 784.977 780.107 785.329C759.977 785.672 739.847 785.98 719.717 786.252C693.937 786.587 668.159 786.816 642.381 786.939C622.254 787.028 602.127 787.018 582.002 786.908C556.221 786.763 530.448 786.419 504.686 785.878C484.55 785.444 464.43 784.861 444.326 784.13C418.547 783.172 392.785 781.906 367.041 780.333C349.568 779.279 332.107 778.051 314.659 776.651L306.711 775.999C231.816 769.738 155.626 759.169 90.382 727.767L88.6228 726.909C87.7484 726.486 86.874 726.062 85.9999 725.618C74.0222 719.718 62.5631 712.817 51.7446 704.989C32.5094 690.925 16.6877 673.846 8.45362 653.705C-4.44848 622.115 2.96607 586.855 18.4624 556.289C33.9588 525.722 57.0152 498.231 77.0138 469.507C82.8722 461.093 88.4378 452.358 93.6246 443.395C126.044 387.186 142.551 321.902 109.862 267.007C105.545 260.006 100.874 253.23 95.8673 246.705C87.8645 236.013 79.7239 225.319 74.276 213.521C61.5704 186.068 64.7167 155.392 69.7943 126.275C76.5914 87.5632 88.7184 45.9223 125.408 22.1063C163.475 -2.62682 217.086 -0.743387 263.871 8.84349C336.613 23.6559 403.567 53.6892 471.19 80.8572C538.812 108.025 609.691 132.972 684.342 136.421C700.378 137.153 716.446 136.752 732.426 135.22V135.22C753.728 133.274 774.767 129.09 795.194 122.737C824.696 113.384 851.605 99.1142 871.664 79.084C914.682 36.2687 994.633 33.9046 1051.95 60.7113C1106.65 86.2901 1141.6 139.504 1138.37 192.218C1134.72 250.897 1090.23 298.667 1049.41 347.72C1044.46 353.664 1039.57 359.629 1034.81 365.639C1032.15 368.994 1029.54 372.357 1026.98 375.727C1022.5 381.676 1018.16 387.659 1014.07 393.718C993.142 424.785 978.171 462.217 991.947 496.17C999.674 515.181 1014.67 529.791 1032.79 542.603C1073.41 571.297 1129.7 590.936 1154.67 630.742C1176.18 665.049 1167.54 710.927 1134.5 737.775Z" fill="#00A7A7"/>
</g>
</svg>
